<svg width="25" height="24" viewBox="0 0 25 24" fill="none" xmlns="http://www.w3.org/2000/svg">
<g clip-path="url(#clip0_295_16728)">
<path d="M23.5935 9.91258L13.8042 9.91211C13.3719 9.91211 13.0215 10.2625 13.0215 10.6947V13.822C13.0215 14.2542 13.3719 14.6046 13.8041 14.6046H19.3169C18.7132 16.1712 17.5865 17.4832 16.1491 18.3168L18.4997 22.386C22.2704 20.2052 24.4997 16.3789 24.4997 12.0955C24.4997 11.4857 24.4548 11.0497 24.3649 10.5587C24.2965 10.1858 23.9727 9.91258 23.5935 9.91258Z" fill="#167EE6"/>
<path d="M12.5003 19.3037C9.80242 19.3037 7.44723 17.8297 6.18231 15.6484L2.11328 17.9938C4.18398 21.5826 8.06308 23.9994 12.5003 23.9994C14.677 23.9994 16.7309 23.4133 18.5003 22.3919V22.3863L16.1496 18.3171C15.0744 18.9408 13.8302 19.3037 12.5003 19.3037Z" fill="#12B347"/>
<path d="M18.5 22.3932V22.3876L16.1494 18.3184C15.0741 18.9419 13.83 19.3049 12.5 19.3049V24.0006C14.6767 24.0006 16.7308 23.4145 18.5 22.3932Z" fill="#0F993E"/>
<path d="M5.19566 12.0003C5.19566 10.6705 5.55856 9.42637 6.18205 8.3512L2.11302 6.00586C1.08603 7.76962 0.5 9.81797 0.5 12.0003C0.5 14.1826 1.08603 16.2309 2.11302 17.9947L6.18205 15.6494C5.55856 14.5742 5.19566 13.3301 5.19566 12.0003Z" fill="#FFD500"/>
<path d="M12.4998 4.69566C14.259 4.69566 15.875 5.32078 17.1372 6.36061C17.4486 6.61711 17.9012 6.59859 18.1864 6.31336L20.4022 4.09758C20.7258 3.77395 20.7028 3.24422 20.3571 2.94431C18.2423 1.10967 15.4907 0 12.4998 0C8.06259 0 4.1835 2.41673 2.11279 6.00558L6.18182 8.35092C7.44675 6.16969 9.80193 4.69566 12.4998 4.69566Z" fill="#FF4B26"/>
<path d="M17.1374 6.36061C17.4488 6.61711 17.9015 6.59859 18.1866 6.31336L20.4024 4.09758C20.726 3.77395 20.7029 3.24422 20.3573 2.94431C18.2425 1.10963 15.491 0 12.5 0V4.69566C14.2592 4.69566 15.8752 5.32078 17.1374 6.36061Z" fill="#D93F21"/>
</g>
<defs>
<clipPath id="clip0_295_16728">
<rect width="24" height="24" fill="white" transform="translate(0.5)"/>
</clipPath>
</defs>
</svg>
