<?xml version="1.0" encoding="utf-8"?>
<!-- Generator: Adobe Illustrator 26.3.0, SVG Export Plug-In . SVG Version: 6.00 Build 0)  -->
<svg version="1.1" id="Layer_1" xmlns="http://www.w3.org/2000/svg" xmlns:xlink="http://www.w3.org/1999/xlink" x="0px" y="0px"
	 viewBox="0 0 50 50" style="enable-background:new 0 0 50 50;" xml:space="preserve">
<style type="text/css">
	.st0{fill:#532B79;}
	.st1{fill:url(#SVGID_1_);}
	.st2{fill:url(#SVGID_00000075840686676336467600000014889704605511691690_);}
</style>
<g>
	<g>
		<path class="st0" d="M24.9992199,32.961586c-4.3992519,0-7.9788055-3.5868683-7.9788055-7.9931927
			s3.5795536-7.9916344,7.9788055-7.9916344s7.9803638,3.5853081,7.9803638,7.9916344S29.3984737,32.961586,24.9992199,32.961586z
			 M24.9992199,20.1734123c-2.6398621,0-4.7872829,2.1508732-4.7872829,4.794981s2.1474209,4.7965393,4.7872829,4.7965393
			s4.7888432-2.1524334,4.7888432-4.7965393S27.6390839,20.1734123,24.9992199,20.1734123z"/>
		<path class="st0" d="M25.1706409,50c-1.5677109,0-3.0372448-0.6118584-4.1390057-1.7200737
			c-1.1033192-1.1019707-1.7110806-2.575428-1.7110806-4.1394157c-0.0093498-0.540062-0.1324615-0.9115486-0.3553066-1.2206001
			c-0.2259617-0.3184166-0.5360756-0.5556679-0.8991737-0.686779c-0.4441319-0.1966705-0.8306065-0.2341309-1.2092876-0.1716957
			c-0.3755646,0.0686798-0.7215214,0.2466164-0.9973507,0.5182076c-0.6591864,0.661808-1.2996731,1.0894852-2.0165186,1.3860474
			c-1.4118748,0.5868874-3.0543871,0.5900078-4.4787283-0.0031204c-0.7059374-0.2903214-1.3464241-0.7179985-1.8965249-1.270546
			c-0.548543-0.5494232-0.975534-1.1893768-1.2700644-1.9042549c-0.2945299-0.7117538-0.4456911-1.4672127-0.4456911-2.2414055
			c0-0.774189,0.1511612-1.5296478,0.4472499-2.2476463c0.2929716-0.7086334,0.7199626-1.348587,1.2685056-1.8980103
			c0.3833566-0.3902168,0.5625682-0.7367287,0.6295772-1.11446c0.0701265-0.3777313,0.0233755-0.7648239-0.1324601-1.1175804
			c-0.1527195-0.3589993-0.3973823-0.6493206-0.7121711-0.8615971c-0.3069968-0.2029133-0.670095-0.3121738-1.0472183-0.3152962
			H5.851644c-1.5396605,0-3.0481534-0.6243458-4.1374474-1.7169514C0.6249026,28.1853371,0,26.6728573,0,25.130722
			s0.6249026-3.0530529,1.7141967-4.1440983c1.1048777-1.1066551,2.5744119-1.7153912,4.1374474-1.7153912
			c0.5391927-0.009367,0.9100828-0.1326752,1.2248716-0.357439c0.3116717-0.2247658,0.5469842-0.5353775,0.6810036-0.8990593
			c0.1932364-0.4448471,0.2384291-0.8319416,0.1698613-1.2112312c-0.0670094-0.3777294-0.2462211-0.722681-0.5142593-0.9973936
			c-0.6576281-0.6571245-1.084619-1.2955189-1.3838239-2.0135174c-0.297647-0.7211199-0.4472499-1.4765787-0.4472499-2.2476473
			c0-0.7726278,0.1496029-1.5265265,0.4456916-2.2429638c0.2976465-0.7164373,0.7246375-1.3563929,1.2700639-1.9026957
			c0.5469842-0.547864,1.1859121-0.9755416,1.8980827-1.270545c1.4274588-0.5931292,3.0528288-0.5931292,4.4834042,0
			c0.7106123,0.2950034,1.3495398,0.722681,1.8965244,1.270545c0.3895903,0.3839726,0.7339888,0.5634723,1.1111116,0.6305895
			c0.3802395,0.0702391,0.7667122,0.0234127,1.1157856-0.1311126c0.1293449-0.056191,0.2664795-0.0967736,0.4051743-0.117065
			c0.2493382-0.1482821,0.4628334-0.3496342,0.6249027-0.5946898c0.2057037-0.3121734,0.3147888-0.6758552,0.3163471-1.0473413
			V5.7806673c0-1.5421357,0.6249027-3.0530541,1.7141953-4.1440992c2.1785889-2.1820905,6.0947495-2.1820905,8.2764549,0
			c1.0877342,1.0926061,1.7110786,2.6019635,1.7110786,4.1440992c0.0031166,0.5603509,0.1122017,0.9224715,0.3179054,1.2346449
			c0.2088203,0.3152947,0.5017929,0.5587897,0.8477478,0.7086329c0.3584251,0.1560869,0.7448959,0.2013516,1.1251373,0.1373563
			c0.3802414-0.0702391,0.7230797-0.2466168,0.9942322-0.513525c0.6638641-0.6649289,1.3027916-1.0926061,2.0165215-1.3907313
			c1.4243393-0.5915685,3.0481529-0.5946898,4.4787292-0.0015612c0.7230759,0.3012471,1.3651237,0.7304854,1.9043159,1.2783494
			c0.5423088,0.5431814,0.9692993,1.1815758,1.2685051,1.8933306c0.2960892,0.7289238,0.4456902,1.4812613,0.4456902,2.2476473
			c0,0.7663851-0.149601,1.5187225-0.4425735,2.2382812c-0.3023224,0.7211199-0.7293129,1.3595142-1.2747383,1.9073782
			c-0.383358,0.391777-0.5610123,0.7367296-0.6295776,1.1128969c-0.0685692,0.3792915-0.0218201,0.766386,0.1309013,1.1175804
			c0.0592155,0.1295528,0.0966187,0.2653484,0.1184349,0.4042645c0.149601,0.2512989,0.3490715,0.4651375,0.5921783,0.6274681
			c0.3116722,0.2044735,0.6763268,0.3152943,1.0472183,0.3168564h0.3584213c1.5614777,0,3.0294533,0.6102982,4.135891,1.7169514
			C49.3766556,21.9075336,50,23.4184532,50,24.9605885s-0.6233444,3.0530529-1.7141953,4.1456604
			c-1.1064377,1.105093-2.5744133,1.7138309-4.135891,1.7138309c-0.5578918,0.0031204-0.9225502,0.112381-1.2311058,0.3184166
			c-0.3179054,0.209156-0.5578918,0.4994755-0.7043762,0.8428669c-0.0031166,0.0062428-0.0062332,0.0124874-0.0093498,0.0187321
			c-0.1527214,0.3496323-0.1994705,0.7367287-0.1309052,1.1175766c0.0654526,0.3714867,0.2493401,0.7242432,0.5111427,0.9927139
			c0.6700974,0.6711693,1.0970879,1.3111267,1.3900566,2.0291252c0.2929726,0.6992683,0.4425774,1.4547272,0.4425774,2.2351608
			c0,0.7804298-0.1496048,1.5390129-0.4488106,2.2507668c-0.2898521,0.7086334-0.7168427,1.3517113-1.2685051,1.8980141
			c-0.5454254,0.5463028-1.1812363,0.9739799-1.8918495,1.270546c-1.4523926,0.5931282-3.0450363,0.590004-4.4787292,0.0031204
			c-0.7199593-0.2996864-1.3557701-0.7273636-1.9043159-1.2767906c-0.3895874-0.3839722-0.7355461-0.5619087-1.1126671-0.6305885
			c-0.367775-0.0718002-0.7635994-0.0218506-1.1095543,0.131115c-0.3646564,0.156086-0.6576271,0.3995781-0.8602142,0.7086296
			c-0.2088203,0.3184166-0.3179054,0.6805382-0.321022,1.0551453v0.3558807c0,1.5639877-0.6077614,3.0343208-1.7141972,4.1425362
			C28.2078857,49.3881416,26.7383518,50,25.1706409,50z M17.2027435,38.8335648
			c0.7059364,0,1.4056396,0.1467209,2.0601521,0.4370422c0.8726826,0.3184166,1.6986122,0.9490051,2.2970238,1.7856293
			c0.5968513,0.8335037,0.9272251,1.819973,0.952158,2.8563881c0,0.93964,0.2758293,1.6076889,0.7776222,2.1102905
			c1.0035839,1.0051956,2.7598572,1.0020752,3.7603245,0.0031204c0.5033493-0.505722,0.7807388-1.1737709,0.7807388-1.8855247
			V43.778389c0.0046749-1.0051994,0.2976456-1.9760551,0.8477478-2.8064384
			C29.2239361,40.141571,30,39.4891281,30.9225502,39.0926704c0.9194317-0.4120712,1.9479485-0.5369415,2.9577675-0.3496361
			c1.0035858,0.1810608,1.9261322,0.6586876,2.6585617,1.3735619c0.3958244,0.3933372,0.6856804,0.5900078,1.009819,0.7242432
			c0.6482773,0.2684669,1.3744736,0.2715912,2.0414543-0.0031242c0.3147888-0.1311111,0.604641-0.3277817,0.8570976-0.5775185
			c0.2462196-0.2466164,0.4456902-0.5400581,0.5734749-0.8584747c0.1371384-0.3309059,0.2057037-0.6711731,0.2057037-1.02705
			c0-0.3496361-0.0685654-0.6992683-0.1994705-1.0114441c-0.1371346-0.3340225-0.3303719-0.6243439-0.5797081-0.8740845
			c-0.8570976-0.8709641-1.3308411-1.7918739-1.5147285-2.8033142c-0.1807671-1.0083199-0.0592155-2.0322475,0.3490753-2.9687672
			c0.392704-0.9146671,1.0378685-1.688858,1.8731499-2.2414036c0.8259277-0.5525475,1.7952309-0.8475494,2.7988129-0.8522339
			c0.9069672,0,1.5739441-0.2762718,2.075737-0.7804317c0.4955597-0.4947948,0.7791824-1.1815758,0.7791824-1.8824043
			s-0.2836227-1.3876095-0.7791824-1.8839664c-0.5017929-0.5025978-1.1687698-0.7804317-1.8793831-0.7804317h-0.3615379
			c-0.9973526-0.0015621-1.9666519-0.2950039-2.8019333-0.8459892c-0.8352814-0.5556679-1.4835587-1.3329792-1.8762665-2.2507687
			c-0.0654526-0.1514053-0.1059685-0.3121738-0.1246681-0.4760647c-0.3085556-0.8491116-0.3864746-1.7622185-0.2244034-2.6581554
			c0.1807671-1.0067577,0.6576271-1.9276686,1.371357-2.662837c0.3927078-0.3933382,0.5890579-0.6852198,0.7230797-1.0098801
			c0.1340179-0.3230991,0.2025871-0.669611,0.2025871-1.017684c0-0.348074-0.0685692-0.6945858-0.2057037-1.02705
			c-0.1309052-0.3152952-0.3272552-0.6071768-0.5765953-0.8584766c-0.2462196-0.2497387-0.5360756-0.4432859-0.8664474-0.5790815
			c-0.6389275-0.2669077-1.38694-0.2669077-2.0321045,0c-0.3272552,0.1357956-0.6171074,0.330904-0.8664474,0.5790815
			c-0.8664474,0.8553543-1.785881,1.3329792-2.7988167,1.5171623c-1.0004654,0.1779385-2.0321007,0.0593128-2.9702339-0.3511953
			c-0.9069653-0.391777-1.6830292-1.0410976-2.2315712-1.8730392c-0.5516605-0.8303804-0.8461914-1.801239-0.8508663-2.8017545
			c0-0.9006195-0.2836208-1.5874004-0.7791805-2.0853167c-0.987999-0.9895892-2.7692051-0.9911499-3.7603226,0.0015607
			c-0.4955597,0.4963555-0.7791805,1.1831365-0.7791805,1.8839655v0.3621206
			c-0.0015583,1.0020761-0.2960892,1.9729347-0.8477478,2.8095589c-0.5547771,0.8366241-1.3308411,1.4859447-2.2471561,1.8777218
			c-0.1511612,0.0655565-0.3101139,0.1061392-0.4721832,0.121747c-0.8508663,0.3106127-1.7625065,0.3886557-2.6570053,0.2232046
			c-1.0035849-0.1810608-1.9245758-0.6571245-2.6570053-1.375123c-0.3895903-0.3886557-0.6794453-0.5837641-1.0035839-0.7179985
			c-0.6513948-0.2715912-1.3884993-0.2715912-2.0367775,0C10.093502,9.2161331,9.8036461,9.4112415,9.5543089,9.6594191
			C9.30653,9.9091578,9.1117344,10.2010393,8.9761572,10.5272608c-0.1340189,0.3230991-0.2025871,0.6664896-0.2025871,1.017684
			c0,0.3511953,0.0685682,0.6945858,0.2041454,1.0223675c0.1340189,0.3230991,0.3288145,0.6149817,0.5750351,0.8600368
			c0.8586569,0.8772068,1.3339567,1.7981176,1.5162849,2.8079987s0.0592175,2.0400505-0.3537483,2.9781322
			c-0.3179054,0.8725243-0.9474831,1.6997833-1.7827644,2.2991543c-0.8368397,0.5993729-1.8217235,0.9302769-2.8502412,0.9552517
			c-0.9319,0-1.6175785,0.2840767-2.1115787,0.7788715c-0.4955587,0.4963551-0.7791803,1.183136-0.7791803,1.8839645
			s0.2836215,1.3876095,0.7791803,1.8839664c0.4955585,0.4963551,1.1812375,0.7804317,1.8809412,0.7804317h0.3615398
			c1.0051422,0.0046825,1.9728847,0.2981262,2.8050485,0.8491116c0.8368397,0.5587902,1.4835596,1.3361015,1.8747082,2.2507687
			c0.4082909,0.9302769,0.5282841,1.957325,0.3443975,2.9625244c-0.1807699,1.0051956-0.6560698,1.9292297-1.3729153,2.662838
			c-0.3895903,0.3902168-0.5828266,0.6805344-0.7152882,1.0020752c-0.1371355,0.3309021-0.2057028,0.6742935-0.2057028,1.0239258
			c0,0.3496361,0.0685673,0.6930275,0.2041445,1.0176849c0.1340199,0.3277817,0.3272562,0.618103,0.5765934,0.8678436
			c0.2508965,0.2497368,0.5391932,0.4432869,0.8586569,0.574398c0.6576281,0.2747116,1.3962917,0.2715912,2.0414524,0.0031204
			c0.3225813-0.1311111,0.6186695-0.3309021,0.8617735-0.574398c0.8789158-0.861599,1.7983484-1.3361015,2.8034906-1.5202827
			C16.5934238,38.86166,16.8988628,38.8335648,17.2027435,38.8335648z M40.7464561,31.3538952h0.0311661H40.7464561z"/>
	</g>
	<g>
		<linearGradient id="SVGID_1_" gradientUnits="userSpaceOnUse" x1="0" y1="25" x2="50" y2="25">
			<stop  offset="0" style="stop-color:#522B79"/>
			<stop  offset="1" style="stop-color:#ED3284"/>
		</linearGradient>
		<path class="st1" d="M24.9992199,32.961586c-4.3992519,0-7.9788055-3.5868683-7.9788055-7.9931927
			s3.5795536-7.9916344,7.9788055-7.9916344s7.9803638,3.5853081,7.9803638,7.9916344S29.3984737,32.961586,24.9992199,32.961586z
			 M24.9992199,20.1734123c-2.6398621,0-4.7872829,2.1508732-4.7872829,4.794981s2.1474209,4.7965393,4.7872829,4.7965393
			s4.7888432-2.1524334,4.7888432-4.7965393S27.6390839,20.1734123,24.9992199,20.1734123z"/>
		
			<linearGradient id="SVGID_00000093873652167461566040000011326937268664164798_" gradientUnits="userSpaceOnUse" x1="0" y1="25" x2="50" y2="25">
			<stop  offset="0" style="stop-color:#522B79"/>
			<stop  offset="1" style="stop-color:#ED3284"/>
		</linearGradient>
		<path style="fill:url(#SVGID_00000093873652167461566040000011326937268664164798_);" d="M25.1706409,50
			c-1.5677109,0-3.0372448-0.6118584-4.1390057-1.7200737c-1.1033192-1.1019707-1.7110806-2.575428-1.7110806-4.1394157
			c-0.0093498-0.540062-0.1324615-0.9115486-0.3553066-1.2206001c-0.2259617-0.3184166-0.5360756-0.5556679-0.8991737-0.686779
			c-0.4441319-0.1966705-0.8306065-0.2341309-1.2092876-0.1716957c-0.3755646,0.0686798-0.7215214,0.2466164-0.9973507,0.5182076
			c-0.6591864,0.661808-1.2996731,1.0894852-2.0165186,1.3860474c-1.4118748,0.5868874-3.0543871,0.5900078-4.4787283-0.0031204
			c-0.7059374-0.2903214-1.3464241-0.7179985-1.8965249-1.270546c-0.548543-0.5494232-0.975534-1.1893768-1.2700644-1.9042549
			c-0.2945299-0.7117538-0.4456911-1.4672127-0.4456911-2.2414055c0-0.774189,0.1511612-1.5296478,0.4472499-2.2476463
			c0.2929716-0.7086334,0.7199626-1.348587,1.2685056-1.8980103c0.3833566-0.3902168,0.5625682-0.7367287,0.6295772-1.11446
			c0.0701265-0.3777313,0.0233755-0.7648239-0.1324601-1.1175804c-0.1527195-0.3589993-0.3973823-0.6493206-0.7121711-0.8615971
			c-0.3069968-0.2029133-0.670095-0.3121738-1.0472183-0.3152962H5.851644c-1.5396605,0-3.0481534-0.6243458-4.1374474-1.7169514
			C0.6249026,28.1853371,0,26.6728573,0,25.130722s0.6249026-3.0530529,1.7141967-4.1440983
			c1.1048777-1.1066551,2.5744119-1.7153912,4.1374474-1.7153912c0.5391927-0.009367,0.9100828-0.1326752,1.2248716-0.357439
			c0.3116717-0.2247658,0.5469842-0.5353775,0.6810036-0.8990593c0.1932364-0.4448471,0.2384291-0.8319416,0.1698613-1.2112312
			c-0.0670094-0.3777294-0.2462211-0.722681-0.5142593-0.9973936c-0.6576281-0.6571245-1.084619-1.2955189-1.3838239-2.0135174
			c-0.297647-0.7211199-0.4472499-1.4765787-0.4472499-2.2476473c0-0.7726278,0.1496029-1.5265265,0.4456916-2.2429638
			c0.2976465-0.7164373,0.7246375-1.3563929,1.2700639-1.9026957c0.5469842-0.547864,1.1859121-0.9755416,1.8980827-1.270545
			c1.4274588-0.5931292,3.0528288-0.5931292,4.4834042,0c0.7106123,0.2950034,1.3495398,0.722681,1.8965244,1.270545
			c0.3895903,0.3839726,0.7339888,0.5634723,1.1111116,0.6305895c0.3802395,0.0702391,0.7667122,0.0234127,1.1157856-0.1311126
			c0.1293449-0.056191,0.2664795-0.0967736,0.4051743-0.117065c0.2493382-0.1482821,0.4628334-0.3496342,0.6249027-0.5946898
			c0.2057037-0.3121734,0.3147888-0.6758552,0.3163471-1.0473413V5.7806673c0-1.5421357,0.6249027-3.0530541,1.7141953-4.1440992
			c2.1785889-2.1820905,6.0947495-2.1820905,8.2764549,0c1.0877342,1.0926061,1.7110786,2.6019635,1.7110786,4.1440992
			c0.0031166,0.5603509,0.1122017,0.9224715,0.3179054,1.2346449c0.2088203,0.3152947,0.5017929,0.5587897,0.8477478,0.7086329
			c0.3584251,0.1560869,0.7448959,0.2013516,1.1251373,0.1373563c0.3802414-0.0702391,0.7230797-0.2466168,0.9942322-0.513525
			c0.6638641-0.6649289,1.3027916-1.0926061,2.0165215-1.3907313c1.4243393-0.5915685,3.0481529-0.5946898,4.4787292-0.0015612
			c0.7230759,0.3012471,1.3651237,0.7304854,1.9043159,1.2783494c0.5423088,0.5431814,0.9692993,1.1815758,1.2685051,1.8933306
			c0.2960892,0.7289238,0.4456902,1.4812613,0.4456902,2.2476473c0,0.7663851-0.149601,1.5187225-0.4425735,2.2382812
			c-0.3023224,0.7211199-0.7293129,1.3595142-1.2747383,1.9073782c-0.383358,0.391777-0.5610123,0.7367296-0.6295776,1.1128969
			c-0.0685692,0.3792915-0.0218201,0.766386,0.1309013,1.1175804c0.0592155,0.1295528,0.0966187,0.2653484,0.1184349,0.4042645
			c0.149601,0.2512989,0.3490715,0.4651375,0.5921783,0.6274681c0.3116722,0.2044735,0.6763268,0.3152943,1.0472183,0.3168564
			h0.3584213c1.5614777,0,3.0294533,0.6102982,4.135891,1.7169514C49.3766556,21.9075336,50,23.4184532,50,24.9605885
			s-0.6233444,3.0530529-1.7141953,4.1456604c-1.1064377,1.105093-2.5744133,1.7138309-4.135891,1.7138309
			c-0.5578918,0.0031204-0.9225502,0.112381-1.2311058,0.3184166c-0.3179054,0.209156-0.5578918,0.4994755-0.7043762,0.8428669
			c-0.0031166,0.0062428-0.0062332,0.0124874-0.0093498,0.0187321c-0.1527214,0.3496323-0.1994705,0.7367287-0.1309052,1.1175766
			c0.0654526,0.3714867,0.2493401,0.7242432,0.5111427,0.9927139c0.6700974,0.6711693,1.0970879,1.3111267,1.3900566,2.0291252
			c0.2929726,0.6992683,0.4425774,1.4547272,0.4425774,2.2351608c0,0.7804298-0.1496048,1.5390129-0.4488106,2.2507668
			c-0.2898521,0.7086334-0.7168427,1.3517113-1.2685051,1.8980141c-0.5454254,0.5463028-1.1812363,0.9739799-1.8918495,1.270546
			c-1.4523926,0.5931282-3.0450363,0.590004-4.4787292,0.0031204c-0.7199593-0.2996864-1.3557701-0.7273636-1.9043159-1.2767906
			c-0.3895874-0.3839722-0.7355461-0.5619087-1.1126671-0.6305885c-0.367775-0.0718002-0.7635994-0.0218506-1.1095543,0.131115
			c-0.3646564,0.156086-0.6576271,0.3995781-0.8602142,0.7086296c-0.2088203,0.3184166-0.3179054,0.6805382-0.321022,1.0551453
			v0.3558807c0,1.5639877-0.6077614,3.0343208-1.7141972,4.1425362C28.2078857,49.3881416,26.7383518,50,25.1706409,50z
			 M17.2027435,38.8335648c0.7059364,0,1.4056396,0.1467209,2.0601521,0.4370422
			c0.8726826,0.3184166,1.6986122,0.9490051,2.2970238,1.7856293c0.5968513,0.8335037,0.9272251,1.819973,0.952158,2.8563881
			c0,0.93964,0.2758293,1.6076889,0.7776222,2.1102905c1.0035839,1.0051956,2.7598572,1.0020752,3.7603245,0.0031204
			c0.5033493-0.505722,0.7807388-1.1737709,0.7807388-1.8855247V43.778389
			c0.0046749-1.0051994,0.2976456-1.9760551,0.8477478-2.8064384C29.2239361,40.141571,30,39.4891281,30.9225502,39.0926704
			c0.9194317-0.4120712,1.9479485-0.5369415,2.9577675-0.3496361c1.0035858,0.1810608,1.9261322,0.6586876,2.6585617,1.3735619
			c0.3958244,0.3933372,0.6856804,0.5900078,1.009819,0.7242432c0.6482773,0.2684669,1.3744736,0.2715912,2.0414543-0.0031242
			c0.3147888-0.1311111,0.604641-0.3277817,0.8570976-0.5775185c0.2462196-0.2466164,0.4456902-0.5400581,0.5734749-0.8584747
			c0.1371384-0.3309059,0.2057037-0.6711731,0.2057037-1.02705c0-0.3496361-0.0685654-0.6992683-0.1994705-1.0114441
			c-0.1371346-0.3340225-0.3303719-0.6243439-0.5797081-0.8740845c-0.8570976-0.8709641-1.3308411-1.7918739-1.5147285-2.8033142
			c-0.1807671-1.0083199-0.0592155-2.0322475,0.3490753-2.9687672c0.392704-0.9146671,1.0378685-1.688858,1.8731499-2.2414036
			c0.8259277-0.5525475,1.7952309-0.8475494,2.7988129-0.8522339c0.9069672,0,1.5739441-0.2762718,2.075737-0.7804317
			c0.4955597-0.4947948,0.7791824-1.1815758,0.7791824-1.8824043s-0.2836227-1.3876095-0.7791824-1.8839664
			c-0.5017929-0.5025978-1.1687698-0.7804317-1.8793831-0.7804317h-0.3615379
			c-0.9973526-0.0015621-1.9666519-0.2950039-2.8019333-0.8459892c-0.8352814-0.5556679-1.4835587-1.3329792-1.8762665-2.2507687
			c-0.0654526-0.1514053-0.1059685-0.3121738-0.1246681-0.4760647c-0.3085556-0.8491116-0.3864746-1.7622185-0.2244034-2.6581554
			c0.1807671-1.0067577,0.6576271-1.9276686,1.371357-2.662837c0.3927078-0.3933382,0.5890579-0.6852198,0.7230797-1.0098801
			c0.1340179-0.3230991,0.2025871-0.669611,0.2025871-1.017684c0-0.348074-0.0685692-0.6945858-0.2057037-1.02705
			c-0.1309052-0.3152952-0.3272552-0.6071768-0.5765953-0.8584766c-0.2462196-0.2497387-0.5360756-0.4432859-0.8664474-0.5790815
			c-0.6389275-0.2669077-1.38694-0.2669077-2.0321045,0c-0.3272552,0.1357956-0.6171074,0.330904-0.8664474,0.5790815
			c-0.8664474,0.8553543-1.785881,1.3329792-2.7988167,1.5171623c-1.0004654,0.1779385-2.0321007,0.0593128-2.9702339-0.3511953
			c-0.9069653-0.391777-1.6830292-1.0410976-2.2315712-1.8730392c-0.5516605-0.8303804-0.8461914-1.801239-0.8508663-2.8017545
			c0-0.9006195-0.2836208-1.5874004-0.7791805-2.0853167c-0.987999-0.9895892-2.7692051-0.9911499-3.7603226,0.0015607
			c-0.4955597,0.4963555-0.7791805,1.1831365-0.7791805,1.8839655v0.3621206
			c-0.0015583,1.0020761-0.2960892,1.9729347-0.8477478,2.8095589c-0.5547771,0.8366241-1.3308411,1.4859447-2.2471561,1.8777218
			c-0.1511612,0.0655565-0.3101139,0.1061392-0.4721832,0.121747c-0.8508663,0.3106127-1.7625065,0.3886557-2.6570053,0.2232046
			c-1.0035849-0.1810608-1.9245758-0.6571245-2.6570053-1.375123c-0.3895903-0.3886557-0.6794453-0.5837641-1.0035839-0.7179985
			c-0.6513948-0.2715912-1.3884993-0.2715912-2.0367775,0C10.093502,9.2161331,9.8036461,9.4112415,9.5543089,9.6594191
			C9.30653,9.9091578,9.1117344,10.2010393,8.9761572,10.5272608c-0.1340189,0.3230991-0.2025871,0.6664896-0.2025871,1.017684
			c0,0.3511953,0.0685682,0.6945858,0.2041454,1.0223675c0.1340189,0.3230991,0.3288145,0.6149817,0.5750351,0.8600368
			c0.8586569,0.8772068,1.3339567,1.7981176,1.5162849,2.8079987s0.0592175,2.0400505-0.3537483,2.9781322
			c-0.3179054,0.8725243-0.9474831,1.6997833-1.7827644,2.2991543c-0.8368397,0.5993729-1.8217235,0.9302769-2.8502412,0.9552517
			c-0.9319,0-1.6175785,0.2840767-2.1115787,0.7788715c-0.4955587,0.4963551-0.7791803,1.183136-0.7791803,1.8839645
			s0.2836215,1.3876095,0.7791803,1.8839664c0.4955585,0.4963551,1.1812375,0.7804317,1.8809412,0.7804317h0.3615398
			c1.0051422,0.0046825,1.9728847,0.2981262,2.8050485,0.8491116c0.8368397,0.5587902,1.4835596,1.3361015,1.8747082,2.2507687
			c0.4082909,0.9302769,0.5282841,1.957325,0.3443975,2.9625244c-0.1807699,1.0051956-0.6560698,1.9292297-1.3729153,2.662838
			c-0.3895903,0.3902168-0.5828266,0.6805344-0.7152882,1.0020752c-0.1371355,0.3309021-0.2057028,0.6742935-0.2057028,1.0239258
			c0,0.3496361,0.0685673,0.6930275,0.2041445,1.0176849c0.1340199,0.3277817,0.3272562,0.618103,0.5765934,0.8678436
			c0.2508965,0.2497368,0.5391932,0.4432869,0.8586569,0.574398c0.6576281,0.2747116,1.3962917,0.2715912,2.0414524,0.0031204
			c0.3225813-0.1311111,0.6186695-0.3309021,0.8617735-0.574398c0.8789158-0.861599,1.7983484-1.3361015,2.8034906-1.5202827
			C16.5934238,38.86166,16.8988628,38.8335648,17.2027435,38.8335648z M40.7464561,31.3538952h0.0311661H40.7464561z"/>
	</g>
</g>
</svg>
