<?xml version="1.0" encoding="utf-8"?>
<!-- Generator: Adobe Illustrator 26.3.0, SVG Export Plug-In . SVG Version: 6.00 Build 0)  -->
<svg version="1.1" id="Layer_1" xmlns="http://www.w3.org/2000/svg" xmlns:xlink="http://www.w3.org/1999/xlink" x="0px" y="0px"
	 viewBox="0 0 44.8205986 50" style="enable-background:new 0 0 44.8205986 50;" xml:space="preserve">
<style type="text/css">
	.st0{fill:url(#SVGID_1_);}
	.st1{fill:url(#SVGID_00000153664251469658058770000005086429367047742135_);}
	.st2{fill:url(#SVGID_00000069394205279189832520000014921773565011825319_);}
	.st3{fill:url(#SVGID_00000123425653598341499530000012431358650635504520_);}
	.st4{fill:url(#SVGID_00000004524664569614428200000009135609065060442794_);}
	.st5{fill:url(#SVGID_00000017507980259798372640000018020808472696037272_);}
	.st6{fill:url(#SVGID_00000034807591467097955800000011374693986627063437_);}
	.st7{fill:url(#SVGID_00000150811809476045344540000011028582089625291403_);}
	.st8{fill:url(#SVGID_00000142162200627137043220000017272450367230935683_);}
	.st9{fill:url(#SVGID_00000027579838195360919570000014912487232784736901_);}
</style>
<g>
	<g>
		<linearGradient id="SVGID_1_" gradientUnits="userSpaceOnUse" x1="-0.0000105" y1="25" x2="44.82061" y2="25">
			<stop  offset="0" style="stop-color:#522B79"/>
			<stop  offset="1" style="stop-color:#ED3284"/>
		</linearGradient>
		<path class="st0" d="M17.5726185,20.385622c-1.066761,0-1.9344845-0.8677235-1.9344845-1.9344845
			s0.8677235-1.9344845,1.9344845-1.9344845H29.88694c1.066761,0,1.9354649,0.8677235,1.9354649,1.9344845
			S30.953701,20.385622,29.88694,20.385622H17.5726185z"/>
		
			<linearGradient id="SVGID_00000002363855097629050050000012647080541666231724_" gradientUnits="userSpaceOnUse" x1="-0.0000105" y1="25" x2="44.82061" y2="25">
			<stop  offset="0" style="stop-color:#522B79"/>
			<stop  offset="1" style="stop-color:#ED3284"/>
		</linearGradient>
		<path style="fill:url(#SVGID_00000002363855097629050050000012647080541666231724_);" d="M17.5726185,28.2049389
			c-1.066761,0-1.9344845-0.8677235-1.9344845-1.9344845c0-1.0667591,0.8677235-1.9349747,1.9344845-1.9349747H29.88694
			c1.066761,0,1.9354649,0.8682156,1.9354649,1.9349747c0,1.066761-0.8687038,1.9344845-1.9354649,1.9344845H17.5726185z"/>
		
			<linearGradient id="SVGID_00000043433294354954562520000011989861632325341623_" gradientUnits="userSpaceOnUse" x1="-0.0000105" y1="25" x2="44.82061" y2="25">
			<stop  offset="0" style="stop-color:#522B79"/>
			<stop  offset="1" style="stop-color:#ED3284"/>
		</linearGradient>
		<path style="fill:url(#SVGID_00000043433294354954562520000011989861632325341623_);" d="M7.7982264,49.9990196
			c-4.2998891,0-7.7982368-3.4983482-7.7982368-7.7987289V7.7982373C-0.0000107,3.498348,3.4983373,0,7.7982264,0h24.0310402
			c4.3003807,0,7.7987251,3.498348,7.7987251,7.7982373V26.269474c0,1.066761-0.8677216,1.9354649-1.9344826,1.9354649
			s-1.9354668-0.8687038-1.9354668-1.9354649V7.7982373c0-2.166368-1.7619171-3.9287782-3.9287777-3.9287782H7.7982264
			c-2.1663675,0-3.9292681,1.7624102-3.9292681,3.9287782v34.4020538c0,2.1668587,1.7629006,3.9287796,3.9292681,3.9287796
			h14.0733004c1.066761,0,1.9354649,0.8677254,1.9354649,1.9344826c0,1.066761-0.8687038,1.9354668-1.9354649,1.9354668H7.7982264z"
			/>
		
			<linearGradient id="SVGID_00000117649844173307946690000014655129560842078606_" gradientUnits="userSpaceOnUse" x1="-0.0000105" y1="25" x2="44.82061" y2="25">
			<stop  offset="0" style="stop-color:#522B79"/>
			<stop  offset="1" style="stop-color:#ED3284"/>
		</linearGradient>
		<path style="fill:url(#SVGID_00000117649844173307946690000014655129560842078606_);" d="M34.4814644,50
			c-0.5892677,0-1.1383362-0.2637482-1.5069962-0.7216339c-0.6451569-0.8020287-1.7629013-1.635437-2.9453583-2.5188484
			c-2.6325855-1.961937-5.8858147-4.3866615-5.8858147-8.2115097c0-1.8138847,0.6353512-3.4561844,1.7893734-4.6239357
			c1.1265717-1.1412773,2.6708241-1.7697639,4.3474426-1.7697639c1.646225,0,3.0375233,0.500042,4.1346798,1.4844437
			c0.0186272,0.0176506,0.0431404,0.0254936,0.0666733,0.0254936c0.0235291,0,0.0480423-0.007843,0.0666695-0.0254936
			c1.0981369-0.9844017,2.4894371-1.4844437,4.1346817-1.4844437c1.6766167,0,3.220871,0.6284866,4.3474426,1.7697639
			c1.1530418,1.1667709,1.7893715,2.8090706,1.7903519,4.6239357c0,3.8248482-3.2532272,6.2495728-5.8662033,8.1977844
			c-1.1932411,0.8892937-2.3168716,1.7266235-2.9659462,2.5325737C35.6198006,49.7362518,35.0707321,50,34.4814644,50z
			 M30.2801113,36.0242577c-1.3981609,0-2.2668667,0.9667511-2.2668667,2.5237503
			c0,1.8815384,2.1884289,3.5140381,4.3052826,5.0926056c0.7196732,0.5373039,1.4393425,1.0746078,2.0982246,1.6354408
			c0.0186272,0.015686,0.0411797,0.0235291,0.0647125,0.0235291c0.0235291,0,0.0460815-0.007843,0.0647087-0.0235291
			c0.6588821-0.560833,1.3785553-1.0981369,2.0746956-1.6177902c2.1403847-1.5962181,4.3288116-3.2287178,4.3288116-5.1102562
			c0-1.5569992-0.8687019-2.5237503-2.2668648-2.5237503c-1.1991272,0-1.6521072,0.4931793-1.9129143,0.9226303
			c-0.2657089,0.4392548-0.3451309,0.9069405-0.3588562,0.9961662c-0.0803986,1.0265617-0.9265518,1.8236885-1.9286003,1.8236885
			c-1.0559769-0.015686-1.872715-0.787323-1.9286041-1.7972145c-0.0147057-0.1088333-0.1009865-0.6353531-0.4147415-1.1059799
			C31.8782921,36.4723358,31.4321747,36.0242577,30.2801113,36.0242577z"/>
		
			<linearGradient id="SVGID_00000053541367004635484290000018267805980604178596_" gradientUnits="userSpaceOnUse" x1="-0.0000105" y1="25" x2="44.82061" y2="25">
			<stop  offset="0" style="stop-color:#522B79"/>
			<stop  offset="1" style="stop-color:#ED3284"/>
		</linearGradient>
		<path style="fill:url(#SVGID_00000053541367004635484290000018267805980604178596_);" d="M9.9489059,20.3071842
			c-1.0226393,0-1.854085-0.8314457-1.854085-1.8540859c0-1.0226383,0.8314457-1.8545742,1.854085-1.8545742
			s1.8540859,0.8319359,1.8540859,1.8545742C11.8029919,19.4757385,10.9715452,20.3071842,9.9489059,20.3071842z"/>
		
			<linearGradient id="SVGID_00000148627323833654393600000012478165725699176322_" gradientUnits="userSpaceOnUse" x1="-0.0000105" y1="25" x2="44.82061" y2="25">
			<stop  offset="0" style="stop-color:#522B79"/>
			<stop  offset="1" style="stop-color:#ED3284"/>
		</linearGradient>
		<path style="fill:url(#SVGID_00000148627323833654393600000012478165725699176322_);" d="M17.5726185,12.5667953
			c-1.066761,0-1.9344845-0.8682137-1.9344845-1.9349747s0.8677235-1.9344845,1.9344845-1.9344845H29.88694
			c1.066761,0,1.9354649,0.8677235,1.9354649,1.9344845s-0.8687038,1.9349747-1.9354649,1.9349747H17.5726185z"/>
		
			<linearGradient id="SVGID_00000156573513674798747190000016936701135727929749_" gradientUnits="userSpaceOnUse" x1="-0.0000105" y1="25" x2="44.82061" y2="25">
			<stop  offset="0" style="stop-color:#522B79"/>
			<stop  offset="1" style="stop-color:#ED3284"/>
		</linearGradient>
		
			<circle style="fill:url(#SVGID_00000156573513674798747190000016936701135727929749_);" cx="9.9489059" cy="10.6332912" r="1.854085"/>
		
			<linearGradient id="SVGID_00000011011230736455706840000014732516163039880639_" gradientUnits="userSpaceOnUse" x1="-0.0000105" y1="25" x2="44.82061" y2="25">
			<stop  offset="0" style="stop-color:#522B79"/>
			<stop  offset="1" style="stop-color:#ED3284"/>
		</linearGradient>
		
			<circle style="fill:url(#SVGID_00000011011230736455706840000014732516163039880639_);" cx="9.9489059" cy="26.2675133" r="1.8540854"/>
		
			<linearGradient id="SVGID_00000183953531984083860610000012044334981297762233_" gradientUnits="userSpaceOnUse" x1="-0.0000105" y1="25" x2="44.82061" y2="25">
			<stop  offset="0" style="stop-color:#522B79"/>
			<stop  offset="1" style="stop-color:#ED3284"/>
		</linearGradient>
		<path style="fill:url(#SVGID_00000183953531984083860610000012044334981297762233_);" d="M17.5726185,36.0242577
			c-1.066761,0-1.9344845-0.8677254-1.9344845-1.9344864s0.8677235-1.935463,1.9344845-1.935463h2.9345722
			c1.0672512,0,1.9349747,0.8687019,1.9349747,1.935463s-0.8677235,1.9344864-1.9349747,1.9344864H17.5726185z"/>
		
			<linearGradient id="SVGID_00000154383694242403805610000014154384620246293436_" gradientUnits="userSpaceOnUse" x1="-0.0000105" y1="25" x2="44.82061" y2="25">
			<stop  offset="0" style="stop-color:#522B79"/>
			<stop  offset="1" style="stop-color:#ED3284"/>
		</linearGradient>
		<path style="fill:url(#SVGID_00000154383694242403805610000014154384620246293436_);" d="M9.9489059,35.940918
			c-1.0226393,0-1.854085-0.832428-1.854085-1.8540878c0-1.0226364,0.8314457-1.8550644,1.854085-1.8550644
			s1.8540859,0.832428,1.8540859,1.8550644C11.8029919,35.10849,10.9715452,35.940918,9.9489059,35.940918z"/>
	</g>
</g>
</svg>
